{"title":"Reservoir Dogs &amp; BluRay Xtras (1992) 1080p","uid":12217081,"size":6456120169,"categoryP":"video","categoryS":"hd___movies","magnet":"?xt=urn:btih:c3aeb7cd7d03bb6de5d4f442c3af4d6de1bfddd8&amp;dn=Reservoir+Dogs+%26amp%3B+BluRay+Xtras+%281992%29+1080p&amp;tr=udp%3A%2F%2Ftracker.openbittorrent.com%3A80&amp;tr=udp%3A%2F%2Fopen.demonii.com%3A1337&amp;tr=udp%3A%2F%2Ftracker.coppersurfer.tk%3A6969&amp;tr=udp%3A%2F%2Fexodus.desync.com%3A6969","seeders":0,"leechers":0,"uploader":"AlienMethod","files":24,"time":1439253397,"description":"x264/mp4\n6-Channel AC3@448kbps (audio 1)\n2-Channel AAC@192kbps (audio 2)\nEnglish Subs\nBluRay Xtras (Making of, etc.) Incl.\n\n\n&quot;After a simple jewelry heist goes terribly wrong, the surviving criminals begin\nto suspect that one of them is a police informant.&quot;\n\n\n\nGeneral\nComplete name : F:TorrentsReservoir Dogs &amp; BluRay Xtras (1992) 1080p\nReservoir Dogs (1992) 1080p.mp4\nFormat : MPEG-4\nFormat profile : Base Media\nCodec ID : isom\nFile size : 3.87 GiB\nDuration : 1h 39mn\nOverall bit rate mode : Variable\nOverall bit rate : 5 583 Kbps\nEncoded date : UTC 2015-08-10 12:54:22\nTagged date : UTC 2015-08-10 12:54:22\nWriting application : My MP4Box GUI 0.6.0.6 \n\nVideo\nID : 1\nFormat : AVC\nFormat/Info : Advanced Video Codec\nFormat profile : &lt;a class=&quot;__cf_email__&quot; href=&quot;/cdn-cgi/l/email-protection&quot; data-cfemail=&quot;4901202e2109057d6779&quot;&gt;[email&amp;#160;protected]&lt;/a&gt;&lt;script data-cfhash='f9e31' type=&quot;text/javascript&quot;&gt;\n/* &lt;![CDATA[ */!function(){try{var t=&quot;currentScript&quot;in document?document.currentScript:function(){for(var t=document.getElementsByTagName(&quot;script&quot;),e=t.length;e--;)if(t[e].getAttribute(&quot;data-cfhash&quot;))return t[e]}();if(t&amp;&amp;t.previousSibling){var e,r,n,i,c=t.previousSibling,a=c.getAttribute(&quot;data-cfemail&quot;);if(a){for(e=&quot;&quot;,r=parseInt(a.substr(0,2),16),n=2;a.length-n;n+=2)i=parseInt(a.substr(n,2),16)^r,e+=String.fromCharCode(i);e=document.createTextNode(e),c.parentNode.replaceChild(e,c)}t.parentNode.removeChild(t);}}catch(u){}}()/* ]]&gt; */&lt;/script&gt;\nFormat settings, CABAC : Yes\nFormat settings, ReFrames : 4 frames\nCodec ID : avc1\nCodec ID/Info : Advanced Video Coding\nDuration : 1h 39mn\nBit rate : 4 935 Kbps\nMaximum bit rate : 30.5 Mbps\nWidth : 1 904 pixels\nHeight : 816 pixels\nDisplay aspect ratio : 2.35:1\nFrame rate mode : Constant\nFrame rate : 23.976 fps\nColor space : YUV\nChroma subsampling : 4:2:0\nBit depth : 8 bits\nScan type : Progressive\nBits/(Pixel*Frame) : 0.132\nStream size : 3.42 GiB (88%)\nTitle : Reservoir Dogs(Encode).h264\nWriting library : x264 core 142 r2479 dd79a61\nEncoded date : UTC 2015-08-10 12:54:22\nTagged date : UTC 2015-08-10 12:54:48\n\nAudio #1\nID : 2\nFormat : AC-3\nFormat/Info : Audio Coding 3\nMode extension : CM (complete main)\nFormat settings, Endianness : Big\nCodec ID : ac-3\nDuration : 1h 39mn\nBit rate mode : Constant\nBit rate : 448 Kbps\nChannel(s) : 6 channels\nChannel positions : Front: L C R, Side: L R, LFE\nSampling rate : 48.0 KHz\nBit depth : 16 bits\nCompression mode : Lossy\nStream size : 318 MiB (8%)\nTitle : Reservoir Dogs_AC3.ac3\nEncoded date : UTC 2015-08-10 12:54:43\nTagged date : UTC 2015-08-10 12:54:48\n\nAudio #2\nID : 3\nFormat : AAC\nFormat/Info : Advanced Audio Codec\nFormat profile : LC\nCodec ID : 40\nDuration : 1h 39mn\nBit rate mode : Variable\nBit rate : 197 Kbps\nMaximum bit rate : 256 Kbps\nChannel(s) : 2 channels\nChannel positions : Front: L R\nSampling rate : 48.0 KHz\nCompression mode : Lossy\nStream size : 139 MiB (4%)\nTitle : Reservoir Dogs_AAC.m4a\nEncoded date : UTC 2015-08-10 12:54:45\nTagged date : UTC 2015-08-10 12:54:48","torrent":{"xt":"urn:btih:c3aeb7cd7d03bb6de5d4f442c3af4d6de1bfddd8","amp;dn":"Reservoir+Dogs+%26amp%3B+BluRay+Xtras+%281992%29+1080p","amp;tr":["udp%3A%2F%2Ftracker.openbittorrent.com%3A80","udp%3A%2F%2Fopen.demonii.com%3A1337","udp%3A%2F%2Ftracker.coppersurfer.tk%3A6969","udp%3A%2F%2Fexodus.desync.com%3A6969"],"infoHash":"c3aeb7cd7d03bb6de5d4f442c3af4d6de1bfddd8","infoHashBuffer":{"type":"Buffer","data":[195,174,183,205,125,3,187,109,229,212,244,66,195,175,77,109,225,191,221,216]},"announce":[],"urlList":[]}}